<svg xmlns="http://www.w3.org/2000/svg" xmlns:xlink="http://www.w3.org/1999/xlink" id="visual" width="900" height="675" version="1.1" viewBox="0 0 900 675"><rect width="900" height="675" x="0" y="0" fill="#001220"/><defs><linearGradient id="grad1_0" x1="25%" x2="100%" y1="0%" y2="100%"><stop offset="23.333%" stop-color="#001220" stop-opacity="1"/><stop offset="76.667%" stop-color="#001220" stop-opacity="1"/></linearGradient></defs><defs><linearGradient id="grad2_0" x1="0%" x2="75%" y1="0%" y2="100%"><stop offset="23.333%" stop-color="#001220" stop-opacity="1"/><stop offset="76.667%" stop-color="#001220" stop-opacity="1"/></linearGradient></defs><g><path fill="#60F" d="M0 506.3C-53.3 468.5 -106.6 430.8 -170.7 412.1C-234.7 393.3 -309.5 393.4 -358 358C-406.5 322.6 -428.7 251.6 -449 186C-469.3 120.4 -487.8 60.2 -506.2 0L0 0Z" transform="translate(900, 0)"/></g><g><path fill="#60F" d="M0 -506.2C71 -505.1 142 -503.9 193.7 -467.7C245.5 -431.5 278 -360.3 304.1 -304.1C330.2 -247.8 349.9 -206.6 382.5 -158.4C415.1 -110.3 460.7 -55.1 506.3 0L0 0Z" transform="translate(0, 675)"/></g></svg>