<svg id="visual" viewBox="0 0 900 600" width="900" height="600" xmlns="http://www.w3.org/2000/svg" xmlns:xlink="http://www.w3.org/1999/xlink" version="1.1"><rect x="0" y="0" width="900" height="600" fill="#ffffff"></rect><path d="M0 242L18.8 243.8C37.7 245.7 75.3 249.3 112.8 236.7C150.3 224 187.7 195 225.2 220.2C262.7 245.3 300.3 324.7 337.8 361.2C375.3 397.7 412.7 391.3 450.2 375.8C487.7 360.3 525.3 335.7 562.8 329.2C600.3 322.7 637.7 334.3 675.2 310.3C712.7 286.3 750.3 226.7 787.8 200.8C825.3 175 862.7 183 881.3 187L900 191L900 601L881.3 601C862.7 601 825.3 601 787.8 601C750.3 601 712.7 601 675.2 601C637.7 601 600.3 601 562.8 601C525.3 601 487.7 601 450.2 601C412.7 601 375.3 601 337.8 601C300.3 601 262.7 601 225.2 601C187.7 601 150.3 601 112.8 601C75.3 601 37.7 601 18.8 601L0 601Z" fill="#000000" stroke-linecap="round" stroke-linejoin="miter"></path></svg>