  <svg id="visual" viewBox="0 0 900 600"   xmlns="http://www.w3.org/2000/svg" xmlns:xlink="http://www.w3.org/1999/xlink" version="1.1"><path d="M0 396L15 402.8C30 409.7 60 423.3 90 436.8C120 450.3 150 463.7 180 467C210 470.3 240 463.7 270 459C300 454.3 330 451.7 360 443.8C390 436 420 423 450 420.5C480 418 510 426 540 436.5C570 447 600 460 630 454.5C660 449 690 425 720 410.2C750 395.3 780 389.7 810 386.3C840 383 870 382 885 381.5L900 381L900 601L885 601C870 601 840 601 810 601C780 601 750 601 720 601C690 601 660 601 630 601C600 601 570 601 540 601C510 601 480 601 450 601C420 601 390 601 360 601C330 601 300 601 270 601C240 601 210 601 180 601C150 601 120 601 90 601C60 601 30 601 15 601L0 601Z" fill="#2300c5"></path><path d="M0 503L15 487.2C30 471.3 60 439.7 90 426.5C120 413.3 150 418.7 180 429.3C210 440 240 456 270 457.2C300 458.3 330 444.7 360 438.5C390 432.3 420 433.7 450 445.8C480 458 510 481 540 496.5C570 512 600 520 630 508C660 496 690 464 720 449.2C750 434.3 780 436.7 810 451C840 465.3 870 491.7 885 504.8L900 518L900 601L885 601C870 601 840 601 810 601C780 601 750 601 720 601C690 601 660 601 630 601C600 601 570 601 540 601C510 601 480 601 450 601C420 601 390 601 360 601C330 601 300 601 270 601C240 601 210 601 180 601C150 601 120 601 90 601C60 601 30 601 15 601L0 601Z" fill="#0051e2"></path><path d="M0 485L15 480.2C30 475.3 60 465.7 90 458.5C120 451.3 150 446.7 180 446.3C210 446 240 450 270 455.7C300 461.3 330 468.7 360 480C390 491.3 420 506.7 450 515.2C480 523.7 510 525.3 540 528.5C570 531.7 600 536.3 630 533C660 529.7 690 518.3 720 508.3C750 498.3 780 489.7 810 485.2C840 480.7 870 480.3 885 480.2L900 480L900 601L885 601C870 601 840 601 810 601C780 601 750 601 720 601C690 601 660 601 630 601C600 601 570 601 540 601C510 601 480 601 450 601C420 601 390 601 360 601C330 601 300 601 270 601C240 601 210 601 180 601C150 601 120 601 90 601C60 601 30 601 15 601L0 601Z" fill="#007ff0"></path><path d="M0 514L15 520.5C30 527 60 540 90 538.7C120 537.3 150 521.7 180 509.7C210 497.7 240 489.3 270 483.8C300 478.3 330 475.7 360 482.7C390 489.7 420 506.3 450 519C480 531.7 510 540.3 540 532.2C570 524 600 499 630 499.5C660 500 690 526 720 534.3C750 542.7 780 533.3 810 529.7C840 526 870 528 885 529L900 530L900 601L885 601C870 601 840 601 810 601C780 601 750 601 720 601C690 601 660 601 630 601C600 601 570 601 540 601C510 601 480 601 450 601C420 601 390 601 360 601C330 601 300 601 270 601C240 601 210 601 180 601C150 601 120 601 90 601C60 601 30 601 15 601L0 601Z" fill="#00a7f7"></path><path d="M0 561L15 561.5C30 562 60 563 90 563C120 563 150 562 180 555.7C210 549.3 240 537.7 270 534.2C300 530.7 330 535.3 360 539.7C390 544 420 548 450 545.3C480 542.7 510 533.3 540 533.3C570 533.3 600 542.7 630 543.3C660 544 690 536 720 538.3C750 540.7 780 553.3 810 559.3C840 565.3 870 564.7 885 564.3L900 564L900 601L885 601C870 601 840 601 810 601C780 601 750 601 720 601C690 601 660 601 630 601C600 601 570 601 540 601C510 601 480 601 450 601C420 601 390 601 360 601C330 601 300 601 270 601C240 601 210 601 180 601C150 601 120 601 90 601C60 601 30 601 15 601L0 601Z" fill="#00c7e4"></path><path d="M0 565L15 560.2C30 555.3 60 545.7 90 547.7C120 549.7 150 563.3 180 566.3C210 569.3 240 561.7 270 555C300 548.3 330 542.7 360 541.5C390 540.3 420 543.7 450 544.2C480 544.7 510 542.3 540 541.5C570 540.7 600 541.3 630 541.8C660 542.3 690 542.7 720 548.5C750 554.3 780 565.7 810 570.7C840 575.7 870 574.3 885 573.7L900 573L900 601L885 601C870 601 840 601 810 601C780 601 750 601 720 601C690 601 660 601 630 601C600 601 570 601 540 601C510 601 480 601 450 601C420 601 390 601 360 601C330 601 300 601 270 601C240 601 210 601 180 601C150 601 120 601 90 601C60 601 30 601 15 601L0 601Z" fill="#4ddec3"></path></svg>
        