<svg id="visual" viewBox="0 0 900 675" width="900" height="675" xmlns="http://www.w3.org/2000/svg" xmlns:xlink="http://www.w3.org/1999/xlink" version="1.1"><rect x="0" y="0" width="900" height="675" fill="#ffffff"></rect><path d="M0 272L18.8 274.2C37.7 276.3 75.3 280.7 112.8 266.3C150.3 252 187.7 219 225.2 247.3C262.7 275.7 300.3 365.3 337.8 406.7C375.3 448 412.7 441 450.2 423.5C487.7 406 525.3 378 562.8 370.7C600.3 363.3 637.7 376.7 675.2 349.7C712.7 322.7 750.3 255.3 787.8 226.2C825.3 197 862.7 206 881.3 210.5L900 215L900 676L881.3 676C862.7 676 825.3 676 787.8 676C750.3 676 712.7 676 675.2 676C637.7 676 600.3 676 562.8 676C525.3 676 487.7 676 450.2 676C412.7 676 375.3 676 337.8 676C300.3 676 262.7 676 225.2 676C187.7 676 150.3 676 112.8 676C75.3 676 37.7 676 18.8 676L0 676Z" fill="#000000" stroke-linecap="round" stroke-linejoin="miter"></path></svg>