<svg id="visual" viewBox="0 0 900 600" width="900" height="600" xmlns="http://www.w3.org/2000/svg" xmlns:xlink="http://www.w3.org/1999/xlink" version="1.1"><rect x="0" y="0" width="900" height="600" fill="#000000"></rect><path d="M0 415L21.5 405C43 395 86 375 128.8 366.5C171.7 358 214.3 361 257.2 372.7C300 384.3 343 404.7 385.8 402.7C428.7 400.7 471.3 376.3 514.2 369.8C557 363.3 600 374.7 642.8 376.2C685.7 377.7 728.3 369.3 771.2 378.2C814 387 857 413 878.5 426L900 439L900 601L878.5 601C857 601 814 601 771.2 601C728.3 601 685.7 601 642.8 601C600 601 557 601 514.2 601C471.3 601 428.7 601 385.8 601C343 601 300 601 257.2 601C214.3 601 171.7 601 128.8 601C86 601 43 601 21.5 601L0 601Z" fill="#fcaf3c"></path><path d="M0 449L21.5 453.3C43 457.7 86 466.3 128.8 465.5C171.7 464.7 214.3 454.3 257.2 449.8C300 445.3 343 446.7 385.8 439C428.7 431.3 471.3 414.7 514.2 417.7C557 420.7 600 443.3 642.8 451C685.7 458.7 728.3 451.3 771.2 452.7C814 454 857 464 878.5 469L900 474L900 601L878.5 601C857 601 814 601 771.2 601C728.3 601 685.7 601 642.8 601C600 601 557 601 514.2 601C471.3 601 428.7 601 385.8 601C343 601 300 601 257.2 601C214.3 601 171.7 601 128.8 601C86 601 43 601 21.5 601L0 601Z" fill="#fba230"></path><path d="M0 482L21.5 485.3C43 488.7 86 495.3 128.8 493.8C171.7 492.3 214.3 482.7 257.2 480C300 477.3 343 481.7 385.8 476.7C428.7 471.7 471.3 457.3 514.2 454C557 450.7 600 458.3 642.8 459C685.7 459.7 728.3 453.3 771.2 458C814 462.7 857 478.3 878.5 486.2L900 494L900 601L878.5 601C857 601 814 601 771.2 601C728.3 601 685.7 601 642.8 601C600 601 557 601 514.2 601C471.3 601 428.7 601 385.8 601C343 601 300 601 257.2 601C214.3 601 171.7 601 128.8 601C86 601 43 601 21.5 601L0 601Z" fill="#fa9424"></path><path d="M0 521L21.5 522.8C43 524.7 86 528.3 128.8 524.8C171.7 521.3 214.3 510.7 257.2 504C300 497.3 343 494.7 385.8 497.8C428.7 501 471.3 510 514.2 518.2C557 526.3 600 533.7 642.8 535.5C685.7 537.3 728.3 533.7 771.2 526C814 518.3 857 506.7 878.5 500.8L900 495L900 601L878.5 601C857 601 814 601 771.2 601C728.3 601 685.7 601 642.8 601C600 601 557 601 514.2 601C471.3 601 428.7 601 385.8 601C343 601 300 601 257.2 601C214.3 601 171.7 601 128.8 601C86 601 43 601 21.5 601L0 601Z" fill="#f98619"></path><path d="M0 548L21.5 545.5C43 543 86 538 128.8 540.8C171.7 543.7 214.3 554.3 257.2 554.8C300 555.3 343 545.7 385.8 542.5C428.7 539.3 471.3 542.7 514.2 546.2C557 549.7 600 553.3 642.8 557C685.7 560.7 728.3 564.3 771.2 564.3C814 564.3 857 560.7 878.5 558.8L900 557L900 601L878.5 601C857 601 814 601 771.2 601C728.3 601 685.7 601 642.8 601C600 601 557 601 514.2 601C471.3 601 428.7 601 385.8 601C343 601 300 601 257.2 601C214.3 601 171.7 601 128.8 601C86 601 43 601 21.5 601L0 601Z" fill="#f7770f"></path></svg>