<svg xmlns="http://www.w3.org/2000/svg" xmlns:xlink="http://www.w3.org/1999/xlink" id="visual" width="900" height="675" version="1.1" viewBox="0 0 900 675"><rect width="900" height="675" x="0" y="0" fill="#012"/><path fill="#fcaf3c" d="M0 331L21.5 334C43 337 86 343 128.8 337.8C171.7 332.7 214.3 316.3 257.2 301.7C300 287 343 274 385.8 281.2C428.7 288.3 471.3 315.7 514.2 302.2C557 288.7 600 234.3 642.8 223C685.7 211.7 728.3 243.3 771.2 271.5C814 299.7 857 324.3 878.5 336.7L900 349L900 676L878.5 676C857 676 814 676 771.2 676C728.3 676 685.7 676 642.8 676C600 676 557 676 514.2 676C471.3 676 428.7 676 385.8 676C343 676 300 676 257.2 676C214.3 676 171.7 676 128.8 676C86 676 43 676 21.5 676L0 676Z"/><path fill="#fba230" d="M0 369L21.5 362C43 355 86 341 128.8 328C171.7 315 214.3 303 257.2 299.5C300 296 343 301 385.8 318.8C428.7 336.7 471.3 367.3 514.2 382.8C557 398.3 600 398.7 642.8 403.5C685.7 408.3 728.3 417.7 771.2 395.8C814 374 857 321 878.5 294.5L900 268L900 676L878.5 676C857 676 814 676 771.2 676C728.3 676 685.7 676 642.8 676C600 676 557 676 514.2 676C471.3 676 428.7 676 385.8 676C343 676 300 676 257.2 676C214.3 676 171.7 676 128.8 676C86 676 43 676 21.5 676L0 676Z"/><path fill="#fa9424" d="M0 399L21.5 414C43 429 86 459 128.8 451.3C171.7 443.7 214.3 398.3 257.2 381.3C300 364.3 343 375.7 385.8 394.8C428.7 414 471.3 441 514.2 436.3C557 431.7 600 395.3 642.8 376.5C685.7 357.7 728.3 356.3 771.2 368.8C814 381.3 857 407.7 878.5 420.8L900 434L900 676L878.5 676C857 676 814 676 771.2 676C728.3 676 685.7 676 642.8 676C600 676 557 676 514.2 676C471.3 676 428.7 676 385.8 676C343 676 300 676 257.2 676C214.3 676 171.7 676 128.8 676C86 676 43 676 21.5 676L0 676Z"/><path fill="#f98619" d="M0 521L21.5 522.3C43 523.7 86 526.3 128.8 511.8C171.7 497.3 214.3 465.7 257.2 464.7C300 463.7 343 493.3 385.8 496.3C428.7 499.3 471.3 475.7 514.2 473.3C557 471 600 490 642.8 506.3C685.7 522.7 728.3 536.3 771.2 527.2C814 518 857 486 878.5 470L900 454L900 676L878.5 676C857 676 814 676 771.2 676C728.3 676 685.7 676 642.8 676C600 676 557 676 514.2 676C471.3 676 428.7 676 385.8 676C343 676 300 676 257.2 676C214.3 676 171.7 676 128.8 676C86 676 43 676 21.5 676L0 676Z"/><path fill="#f7770f" d="M0 534L21.5 547C43 560 86 586 128.8 590.8C171.7 595.7 214.3 579.3 257.2 578C300 576.7 343 590.3 385.8 598.7C428.7 607 471.3 610 514.2 603.8C557 597.7 600 582.3 642.8 583.8C685.7 585.3 728.3 603.7 771.2 610C814 616.3 857 610.7 878.5 607.8L900 605L900 676L878.5 676C857 676 814 676 771.2 676C728.3 676 685.7 676 642.8 676C600 676 557 676 514.2 676C471.3 676 428.7 676 385.8 676C343 676 300 676 257.2 676C214.3 676 171.7 676 128.8 676C86 676 43 676 21.5 676L0 676Z"/></svg>